HIERARCHY
ROOT Hips
{
	OFFSET 0.000000 0.000000 0.000000 
	CHANNELS 6 Xposition Yposition Zposition Zrotation Yrotation Xrotation
	JOINT LeftUpLeg
	{
		OFFSET 1.363060 -1.794630 0.839290 
		CHANNELS 3 Zrotation Yrotation Xrotation
		JOINT LeftLeg
		{
			OFFSET 2.448110 -6.726130 0.000000 
			CHANNELS 3 Zrotation Yrotation Xrotation
			JOINT LeftFoot
			{
				OFFSET 2.562200 -7.039590 0.000000 
				CHANNELS 3 Zrotation Yrotation Xrotation
				JOINT LeftToeBase
				{
					OFFSET 0.157640 -0.433110 2.322550 
					CHANNELS 3 Zrotation Yrotation Xrotation
					End Site
					{
						OFFSET 0.000000 0.000000 0.000000 
					}
				}
			}
		}
	}
	JOINT RightUpLeg
	{
		OFFSET -1.305520 -1.794630 0.839290 
		CHANNELS 3 Zrotation Yrotation Xrotation
		JOINT RightLeg
		{
			OFFSET -2.542530 -6.985550 0.000000 
			CHANNELS 3 Zrotation Yrotation Xrotation
			JOINT RightFoot
			{
				OFFSET -2.568260 -7.056230 0.000000 
				CHANNELS 3 Zrotation Yrotation Xrotation
				JOINT RightToeBase
				{
					OFFSET -0.164730 -0.452590 2.363150 
					CHANNELS 3 Zrotation Yrotation Xrotation
					End Site
					{
						OFFSET 0.000000 0.000000 0.000000 
					}
				}
			}
		}
	}
	JOINT Spine
	{
		OFFSET 0.028270 2.035590 -0.193380 
		CHANNELS 3 Zrotation Yrotation Xrotation
		JOINT Spine1
		{
			OFFSET 0.056720 2.048850 -0.042750 
			CHANNELS 3 Zrotation Yrotation Xrotation
			JOINT Neck1
			{
				OFFSET -0.054170 1.746240 0.172020 
				CHANNELS 3 Zrotation Yrotation Xrotation
				JOINT Head
				{
					OFFSET 0.104070 1.761360 -0.123970 
					CHANNELS 3 Zrotation Yrotation Xrotation
					End Site
					{
						OFFSET 0.000000 0.000000 0.000000 
					}
				}
			}
			JOINT LeftArm
			{
				OFFSET 3.362410 1.200890 -0.311210 
				CHANNELS 3 Zrotation Yrotation Xrotation
				JOINT LeftForeArm
				{
					OFFSET 4.983000 -0.000000 -0.000000 
					CHANNELS 3 Zrotation Yrotation Xrotation
					JOINT LeftHand
					{
						OFFSET 3.483560 -0.000000 -0.000000 
						CHANNELS 3 Zrotation Yrotation Xrotation
						JOINT LeftHandIndex1
						{
							OFFSET 0.715260 -0.000000 -0.000000 
							CHANNELS 3 Zrotation Yrotation Xrotation
							End Site
							{
								OFFSET 0.000000 0.000000 0.000000 
							}
						}
					}
				}
			}
			JOINT RightArm
			{
				OFFSET -3.136600 1.374050 -0.404650 
				CHANNELS 3 Zrotation Yrotation Xrotation
				JOINT RightForeArm
				{
					OFFSET -5.241900 -0.000000 -0.000000 
					CHANNELS 3 Zrotation Yrotation Xrotation
					JOINT RightHand
					{
						OFFSET -3.444170 -0.000000 -0.000000 
						CHANNELS 3 Zrotation Yrotation Xrotation
						JOINT RightHandIndex1
						{
							OFFSET -0.622530 -0.000000 -0.000000 
							CHANNELS 3 Zrotation Yrotation Xrotation
							End Site
							{
								OFFSET 0.000000 0.000000 0.000000 
							}
						}
					}
				}
			}
		}
	}
}
MOTION
Frames: 13
Frame Time: 0.041667
2.629504 16.313096 10.574481 -8.283375 -1.626523 73.554927 -12.220005 13.996840 -43.832016 25.018276 19.541158 105.987099 1.532468 -2.651503 11.830228 0.431000 -4.213300 -11.677400 17.219285 -5.467878 -46.113896 -22.520893 -21.842586 97.249067 -0.950257 0.812592 20.379032 -0.007800 0.569200 -1.564100 1.255832 7.577836 -5.565531 -2.240606 4.304949 1.522206 5.733811 -9.850216 10.366725 -1.159700 -3.221600 13.785900 53.260986 -31.838309 -78.100416 43.529839 -46.274442 -30.981104 -1.752606 -4.767107 -36.657769 -7.125000 0.000000 0.000000 -27.346654 19.367440 -35.674700 -42.867008 36.667473 -37.345354 0.944856 9.772767 -60.005960 7.125000 0.000000 0.000000 
2.629384 16.318933 10.594971 -8.215434 -1.537938 73.763376 -12.074358 13.897770 -43.653906 25.013800 19.543223 105.961360 1.526990 -2.639839 11.990551 0.419200 -4.155700 -11.515100 16.984602 -5.328325 -45.960361 -22.929161 -21.825971 96.844753 0.811353 -4.698114 21.350109 -0.029500 1.109600 -3.050500 1.357167 7.529320 -5.665623 -2.362907 4.262207 1.672015 5.712958 -9.828942 10.467210 -1.165200 -3.202300 13.901800 53.363317 -31.076264 -78.645661 41.405058 -45.725763 -29.285324 -1.853892 -4.952061 -36.553333 -7.125000 0.000000 0.000000 -28.144171 18.617951 -36.721358 -40.560464 35.544691 -35.065654 0.735972 9.991951 -59.226655 7.125000 0.000000 0.000000 
2.629265 16.323579 10.611172 -8.158609 -1.511808 73.982021 -11.962226 13.752372 -43.468096 24.970657 19.567858 105.799884 1.515343 -2.609216 12.262156 0.396100 -4.040700 -11.191300 16.727253 -5.197836 -45.753498 -22.868867 -21.875179 96.349840 0.790283 -4.940996 22.815340 -0.019300 0.897100 -2.465700 1.472216 7.491620 -5.784233 -2.505868 4.228259 1.813212 5.679186 -9.794101 10.552419 -1.193300 -3.179600 13.981000 53.448031 -30.386174 -79.104131 39.407459 -45.186587 -27.695746 -1.968540 -5.086042 -36.503396 -7.125000 0.000000 0.000000 -28.905655 17.804779 -37.744685 -38.318113 34.395655 -32.832515 0.754659 10.296814 -58.429582 7.125000 0.000000 0.000000 
2.627836 16.327153 10.637142 -8.099660 -1.493386 74.223669 -11.906448 13.645193 -43.355876 24.899567 19.603540 105.496036 1.441043 -2.382649 12.524540 0.422000 -4.169200 -11.553300 16.480189 -5.069968 -45.610528 -22.748780 -21.935545 95.742211 0.686059 -4.933969 24.161659 -0.014300 0.770800 -2.118400 1.562748 7.425687 -5.883984 -2.557408 4.175079 1.914131 5.686000 -9.756056 10.569688 -1.154500 -3.175200 13.972500 53.402274 -29.700438 -79.293385 37.504084 -44.563690 -26.163560 -2.111938 -5.174624 -36.336544 -7.125000 0.000000 0.000000 -29.502988 17.216493 -38.551094 -36.938493 33.748118 -31.561516 0.484911 10.555804 -59.090000 7.125000 0.000000 0.000000 
2.627002 16.330488 10.658942 -8.034656 -1.460209 74.461032 -11.817512 13.509640 -43.209905 24.819874 19.642918 105.172625 1.395862 -2.243723 12.874581 0.425800 -4.187900 -11.606000 16.233903 -4.942244 -45.446010 -22.711612 -21.987149 95.112078 0.814759 -5.724918 25.497621 -0.009500 0.630200 -1.731700 1.681408 7.359668 -6.015721 -2.647253 4.125188 2.008103 5.674167 -9.705895 10.613576 -1.144300 -3.158300 13.997400 53.368212 -29.040913 -79.533606 35.618315 -43.928763 -24.676646 -2.248120 -5.282448 -36.133052 -7.125000 0.000000 0.000000 -30.105802 16.567553 -39.417763 -35.314641 32.944808 -30.030832 0.288389 10.803094 -59.146717 7.125000 0.000000 0.000000 
2.626049 16.332513 10.680623 -7.966850 -1.424992 74.707958 -11.726023 13.357600 -43.062329 24.713529 19.694214 104.744670 1.349571 -2.097291 13.325827 0.430400 -4.210000 -11.668100 15.992396 -4.812424 -45.274985 -22.611502 -22.046980 94.396209 0.814337 -6.143965 26.798681 -0.005800 0.490500 -1.347800 1.808584 7.283063 -6.162204 -2.727900 4.070945 2.087704 5.665170 -9.644591 10.649177 -1.126000 -3.139800 14.007800 53.310542 -28.408032 -79.727630 33.778907 -43.260914 -23.234669 -2.391241 -5.371725 -35.832402 -7.125000 0.000000 0.000000 -30.669845 15.967075 -40.254195 -33.843274 32.217979 -28.655111 0.091665 11.042172 -59.294942 7.125000 0.000000 0.000000 
2.625096 16.332871 10.702185 -7.897885 -1.377774 74.963584 -11.619356 13.190058 -42.903374 24.581022 19.756606 104.214094 1.308155 -1.959687 13.889991 0.432900 -4.222300 -11.703000 15.762467 -4.677582 -45.085527 -22.485598 -22.109753 93.587382 0.810025 -6.581710 28.037943 -0.003100 0.357100 -0.981200 1.945132 7.196149 -6.324252 -2.804251 4.012512 2.161313 5.653051 -9.564538 10.685852 -1.106400 -3.114500 14.014300 53.237521 -27.800234 -79.898609 31.972278 -42.559400 -21.829633 -2.539087 -5.447792 -35.400334 -7.125000 0.000000 0.000000 -31.205273 15.414437 -41.076372 -32.488056 31.549619 -27.390410 -0.097384 11.264555 -59.449295 7.125000 0.000000 0.000000 
2.624024 16.331560 10.722795 -7.830284 -1.324162 75.225657 -11.498399 13.007242 -42.727615 24.419260 19.830560 103.571712 1.273107 -1.833582 14.600245 0.431600 -4.216100 -11.685500 15.536667 -4.534095 -44.867952 -22.327443 -22.175068 92.675175 0.799672 -7.022969 29.209708 -0.001400 0.241000 -0.662300 2.093885 7.104619 -6.505628 -2.881732 3.953360 2.233003 5.639537 -9.473851 10.728271 -1.085200 -3.084800 14.023300 53.165094 -27.222937 -80.081229 30.183279 -41.828837 -20.453584 -2.690722 -5.509173 -34.814379 -7.125000 0.000000 0.000000 -31.719579 14.893238 -41.901245 -31.180293 30.892714 -26.155305 -0.242334 11.446907 -59.423435 7.125000 0.000000 0.000000 
2.622713 16.328582 10.742570 -7.766745 -1.265474 75.490334 -11.362614 12.815064 -42.534795 24.229830 19.914795 102.819871 1.241835 -1.708394 15.470023 0.427700 -4.197100 -11.631800 15.313181 -4.380567 -44.614110 -22.133747 -22.241070 91.655951 0.783651 -7.461637 30.312166 -0.000500 0.146700 -0.403000 2.253030 7.010517 -6.705250 -2.959758 3.894042 2.306797 5.625746 -9.379741 10.779297 -1.060900 -3.052900 14.038800 53.091564 -26.673751 -80.274106 28.417350 -41.070436 -19.111308 -2.850086 -5.557710 -34.076589 -7.125000 0.000000 0.000000 -32.209499 14.404051 -42.723319 -29.919177 30.245686 -24.950438 -0.344435 11.583238 -59.226147 7.125000 0.000000 0.000000 
2.621165 16.323817 10.761988 -7.710619 -1.207016 75.752834 -11.214055 12.622706 -42.320171 24.011666 20.008342 101.951345 1.211973 -1.571469 16.499418 0.421500 -4.167000 -11.546800 15.085606 -4.215649 -44.318350 -21.901244 -22.306493 90.524168 0.759785 -7.889335 31.359775 -0.000100 0.077700 -0.213400 2.415971 6.915194 -6.917707 -3.037492 3.833870 2.385255 5.612311 -9.280629 10.834724 -1.031800 -3.019200 14.056800 53.012229 -26.149450 -80.475200 26.686302 -40.285660 -17.812878 -3.018937 -5.598016 -33.204150 -7.125000 0.000000 0.000000 -32.673448 13.945567 -43.533320 -28.721855 29.621305 -23.801865 -0.413026 11.704313 -58.962901 7.125000 0.000000 0.000000 
2.619497 16.317622 10.781048 -7.658265 -1.150353 76.005657 -11.053356 12.428038 -42.078394 23.766671 20.109259 100.968613 1.178199 -1.401741 17.683826 0.412600 -4.123400 -11.424200 14.848110 -4.047303 -43.976900 -21.629222 -22.367840 89.282096 0.727032 -8.300158 32.358504 0.000000 0.038300 -0.105300 2.579245 6.820945 -7.140419 -3.114515 3.773956 2.464681 5.597494 -9.186026 10.894218 -1.002400 -2.987000 14.079700 52.931505 -25.655073 -80.702723 25.007220 -39.486318 -16.573870 -3.198637 -5.635366 -32.234335 -7.125000 0.000000 0.000000 -33.105233 13.517588 -44.305885 -27.599855 29.031101 -22.730750 -0.473296 11.829890 -58.731398 7.125000 0.000000 0.000000 
2.617591 16.310356 10.800108 -7.607794 -1.094859 76.244397 -10.877965 12.232025 -41.805128 23.496463 20.215444 99.872371 1.140130 -1.190430 18.991532 0.404500 -4.082900 -11.309900 14.598127 -3.879177 -43.585211 -21.314510 -22.422642 87.926121 0.680807 -8.682561 33.328233 0.000000 0.036600 -0.100700 2.741427 6.727873 -7.373098 -3.192224 3.714502 2.545042 5.580458 -9.098738 10.956905 -0.973500 -2.957600 14.109500 52.846928 -25.189206 -80.968138 23.404023 -38.683980 -15.413981 -3.385060 -5.679286 -31.213200 -7.125000 0.000000 0.000000 -33.507362 13.117317 -45.042804 -26.540095 28.470198 -21.726973 -0.529213 11.974825 -58.544750 7.125000 0.000000 0.000000 
2.615566 16.302017 10.819526 -7.554885 -1.040992 76.467671 -10.686229 12.030802 -41.496696 23.200861 20.325223 98.660803 1.099236 -0.936055 20.386994 0.389600 -4.008100 -11.099500 14.331372 -3.719272 -43.142395 -20.955782 -22.467651 86.451877 0.618736 -9.035532 34.287698 -0.000100 0.068100 -0.187200 2.901008 6.636188 -7.614669 -3.271804 3.655887 2.627611 5.557664 -9.015193 11.021731 -0.950300 -2.929600 14.144800 52.761096 -24.757869 -81.301134 21.896958 -37.892634 -14.350756 -3.570820 -5.732689 -30.184402 -7.125000 0.000000 0.000000 -33.884801 12.742202 -45.739220 -25.538947 27.941604 -20.789709 -0.591446 12.162914 -58.478343 7.125000 0.000000 0.000000 
